Format                         : MPEG-PS
File size                      : 1.58 GiB
Duration                       : 49mn 35s
Overall bit rate               : 4 568 Kbps

Video
ID                             : 224 (0xE0)
Format                         : MPEG Video
Format version                 : Version 2
Format profile                 : Main@Main
Format settings, BVOP          : Yes
Format settings, Matrix        : Custom
Format settings, GOP           : M=3, N=26
Duration                       : 49mn 34s
Bit rate                       : 4 285 Kbps
Maximum bit rate               : 4 090 Kbps
Width                          : 720 pixels
Height                         : 576 pixels
Display aspect ratio           : 4:3
Frame rate                     : 25.000 fps
Standard                       : PAL
Color space                    : YUV
Chroma subsampling             : 4:2:0
Bit depth                      : 8 bits
Scan type                      : Interlaced
Scan order                     : Top Field First
Compression mode               : Lossy
Bits/(Pixel*Frame)             : 0.413
Stream size                    : 1.48 GiB (94%)

Audio
ID                             : 192 (0xC0)
Format                         : MPEG Audio
Format version                 : Version 1
Format profile                 : Layer 2
Duration                       : 49mn 35s
Bit rate mode                  : Constant
Bit rate                       : 192 Kbps
Channel(s)                     : 2 channels
Sampling rate                  : 48.0 KHz
Compression mode               : Lossy
Delay relative to video        : -300ms
Stream size                    : 68.1 MiB (4%)
